<?xml version="1.0" standalone="no"?>
<svg xmlns="http://www.w3.org/2000/svg" viewBox="0 0 151 62" width="151" height="62"><g fill="#B8B5FF" color="#B8B5FF" transform="translate(57.647 0) scale(0.7) "><svg width="50.0" height="44.0" x="0.0" y="0.0" viewBox="0 0 50 44"><path fill="currentColor" fill-rule="evenodd" d="M44.448 20.802l-2.514 2.514-1.677-1.676 2.515-2.514a8.433 8.433 0 0 0 2.454-5.926c0-2.215-.898-4.31-2.454-5.927a8.346 8.346 0 0 0-11.853 0l-2.514 2.514-1.676-1.676 2.514-2.514c4.19-4.19 11.014-4.19 15.265 0 4.13 4.13 4.13 11.015-.06 15.205zm-7.603-2.574l2.514-2.514c.659-.659 1.078-1.557 1.078-2.514 0-.958-.36-1.856-1.078-2.515-.718-.658-1.556-1.077-2.514-1.077-.958 0-1.855.36-2.514 1.077L31.817 13.2l-1.676-1.677 2.514-2.514a5.961 5.961 0 0 1 8.44 0c1.138 1.138 1.736 2.634 1.736 4.25 0 1.617-.598 3.113-1.736 4.25l-2.514 2.515-1.736-1.796zm-3.412-3.352l2.514-2.514c.48-.48 1.257-.48 1.676 0 .24.239.36.538.36.838 0 .299-.12.598-.36.838l-2.454 2.514-1.736-1.676zM3.861 3.86a13.151 13.151 0 0 1 18.617 0l2.515 2.514 2.574-2.514a13.151 13.151 0 0 1 18.617 0c5.088 5.148 5.088 13.47 0 18.677l-4.19 4.19-21.192-21.19c-4.25-4.191-11.074-4.191-15.265 0-4.19 4.25-4.19 11.074 0 15.264L26.67 41.993l-1.676 1.677L3.86 22.478a13.151 13.151 0 0 1 0-18.617zm9.279.958c2.215 0 4.37.898 5.926 2.454l21.192 21.192-1.677 1.676-21.19-21.192c-1.138-1.137-2.635-1.736-4.251-1.736-1.616 0-3.113.599-4.25 1.736-1.138 1.138-1.736 2.634-1.736 4.25 0 1.617.598 3.113 1.736 4.25l21.19 21.192-1.675 1.616L7.214 19.126A8.433 8.433 0 0 1 4.759 13.2c0-2.215.898-4.37 2.455-5.927A8.433 8.433 0 0 1 13.14 4.82zm2.574 5.806l21.192 21.192-1.737 1.676-21.191-21.191a1.157 1.157 0 0 0-1.676 0 1.157 1.157 0 0 0 0 1.676l21.131 21.191-1.676 1.676-21.132-21.131c-1.376-1.377-1.376-3.652 0-5.089 1.377-1.376 3.652-1.376 5.089 0z"></path></svg></g><line x1="58.696484375" y1="36.8" x2="91.59648437499999" y2="36.8" stroke="#7868E6" stroke-linecap="round"></line><path fill="#7868E6" fill-rule="nonzero" d="M5.02 2.88L5.02 9.77Q5.25 9.86 5.57 9.90L5.57 9.90Q5.84 9.96 6.23 10.00Q6.63 10.03 7.16 10.03L7.16 10.03Q8.37 10.03 9.13 9.73Q9.89 9.43 10.33 8.94Q10.77 8.45 10.93 7.82Q11.10 7.18 11.10 6.50L11.10 6.50Q11.10 5.75 10.97 5.08Q10.84 4.41 10.41 3.89Q9.98 3.38 9.16 3.07Q8.33 2.77 6.94 2.77L6.94 2.77Q6.50 2.77 6.01 2.79Q5.51 2.81 5.02 2.88L5.02 2.88ZM5.02 11.43L5.02 14.31Q5.02 15.06 5.07 15.63Q5.12 16.21 5.20 16.63Q5.27 17.06 5.34 17.35Q5.41 17.64 5.45 17.81L5.45 17.81Q5.27 17.91 5.06 17.98Q4.84 18.06 4.60 18.11Q4.36 18.16 4.13 18.19Q3.89 18.21 3.68 18.21L3.68 18.21Q3.38 18.21 3.11 18.15Q2.85 18.09 2.66 17.96Q2.47 17.82 2.37 17.60Q2.26 17.38 2.26 17.04L2.26 17.04L2.26 3L0 3.14L0 2.11Q0.22 2.03 0.77 1.88Q1.31 1.73 2.21 1.59Q3.12 1.44 4.40 1.33Q5.68 1.22 7.39 1.22L7.39 1.22Q8.73 1.22 9.91 1.45Q11.09 1.68 11.98 2.27Q12.87 2.86 13.38 3.88Q13.90 4.91 13.90 6.50L13.90 6.50Q13.90 7.69 13.50 8.63Q13.10 9.56 12.35 10.21Q11.60 10.86 10.52 11.20Q9.45 11.54 8.10 11.54L8.10 11.54Q7.96 11.54 7.65 11.54Q7.34 11.54 6.93 11.53Q6.52 11.52 6.02 11.50Q5.53 11.47 5.02 11.43L5.02 11.43ZM23.94 17.09L23.94 16.97Q23.94 16.97 23.78 17.07Q23.63 17.17 23.35 17.32Q23.07 17.47 22.71 17.65Q22.34 17.84 21.90 17.99Q21.46 18.15 20.98 18.26Q20.51 18.36 20.03 18.36L20.03 18.36Q19.27 18.36 18.57 18.16Q17.88 17.95 17.36 17.52Q16.84 17.09 16.53 16.43Q16.22 15.77 16.22 14.86L16.22 14.86Q16.22 13.85 16.67 13.15Q17.12 12.45 17.92 12.01Q18.73 11.57 19.84 11.37Q20.95 11.18 22.29 11.18L22.29 11.18L23.94 11.18L23.94 10.30Q23.94 9.62 23.89 8.99Q23.84 8.37 23.64 7.90Q23.45 7.43 23.08 7.15Q22.71 6.87 22.09 6.87L22.09 6.87Q21.49 6.87 20.89 7.08Q20.30 7.30 19.72 7.63Q19.15 7.96 18.62 8.35Q18.09 8.74 17.66 9.09L17.66 9.09L16.70 7.80Q16.52 7.59 16.52 7.37L16.52 7.37Q16.52 6.98 17.01 6.67Q17.50 6.35 18.23 6.12Q18.96 5.89 19.80 5.77Q20.65 5.64 21.38 5.64L21.38 5.64Q22.45 5.64 23.41 5.89Q24.38 6.15 25.10 6.71Q25.82 7.27 26.24 8.15Q26.66 9.04 26.66 10.30L26.66 10.30L26.66 16.83L28.70 16.83L28.70 17.71Q28.50 17.81 28.15 17.91Q27.81 18 27.39 18.07Q26.96 18.14 26.50 18.18Q26.04 18.21 25.62 18.21L25.62 18.21Q25.34 18.21 25.04 18.18Q24.75 18.14 24.51 18.02Q24.27 17.89 24.11 17.68Q23.95 17.46 23.94 17.09L23.94 17.09ZM20.85 16.63L20.85 16.63Q21.26 16.63 21.79 16.52Q22.32 16.41 22.80 16.28L22.80 16.28Q23.37 16.13 23.94 15.91L23.94 15.91L23.94 12.62L21.97 12.62Q21.53 12.62 20.99 12.70Q20.46 12.79 20.00 13.01Q19.54 13.24 19.22 13.65Q18.90 14.06 18.90 14.73L18.90 14.73Q18.90 15.15 19.03 15.50Q19.16 15.84 19.41 16.10Q19.65 16.35 20.02 16.49Q20.38 16.63 20.85 16.63ZM34.65 6.41L34.65 16.83L36.69 16.83L36.69 17.71Q36.49 17.81 36.15 17.91Q35.80 18 35.38 18.07Q34.96 18.14 34.50 18.18Q34.04 18.21 33.62 18.21L33.62 18.21Q33.26 18.21 32.95 18.17Q32.65 18.13 32.42 18.01Q32.19 17.88 32.06 17.67Q31.93 17.45 31.93 17.09L31.93 17.09L31.93 7.15L29.87 7.15L29.87 6.27Q30.12 6.16 30.56 6.07Q31.01 5.98 31.54 5.92Q32.07 5.86 32.63 5.82Q33.19 5.79 33.64 5.79L33.64 5.79Q33.89 5.79 34.08 5.80Q34.27 5.81 34.39 5.87Q34.52 5.93 34.59 6.05Q34.65 6.18 34.65 6.41L34.65 6.41ZM31.65 1.92L31.65 1.92Q31.65 1.59 31.78 1.30Q31.91 1.01 32.13 0.80Q32.36 0.59 32.66 0.46Q32.96 0.34 33.30 0.34L33.30 0.34Q33.64 0.34 33.95 0.46Q34.25 0.59 34.48 0.80Q34.70 1.01 34.83 1.30Q34.96 1.59 34.96 1.92L34.96 1.92Q34.96 2.25 34.83 2.53Q34.70 2.81 34.48 3.02Q34.25 3.23 33.95 3.36Q33.64 3.48 33.30 3.48L33.30 3.48Q32.96 3.48 32.66 3.36Q32.36 3.23 32.13 3.02Q31.91 2.81 31.78 2.53Q31.65 2.25 31.65 1.92ZM40.32 17.09L40.32 7.17L38.26 7.17L38.26 6.29Q38.51 6.19 38.95 6.09Q39.40 6 39.93 5.94Q40.46 5.88 41.02 5.85Q41.58 5.81 42.04 5.81L42.04 5.81Q42.28 5.81 42.47 5.82Q42.66 5.84 42.79 5.89Q42.91 5.95 42.98 6.08Q43.04 6.20 43.04 6.43L43.04 6.43L43.04 7.01Q43.22 6.95 43.69 6.73Q44.17 6.50 44.85 6.26Q45.53 6.02 46.34 5.83Q47.14 5.64 47.99 5.64L47.99 5.64Q49.01 5.64 49.64 5.92Q50.27 6.20 50.63 6.70Q50.98 7.20 51.10 7.88Q51.22 8.55 51.22 9.36L51.22 9.36L51.22 16.83L53.26 16.83L53.26 17.71Q53.06 17.81 52.72 17.91Q52.37 18 51.95 18.07Q51.53 18.14 51.07 18.18Q50.61 18.21 50.19 18.21L50.19 18.21Q49.83 18.21 49.52 18.17Q49.22 18.13 49.00 18.01Q48.77 17.88 48.64 17.67Q48.52 17.45 48.52 17.09L48.52 17.09L48.52 9.60Q48.52 9 48.45 8.58Q48.39 8.16 48.21 7.89Q48.02 7.62 47.70 7.49Q47.38 7.37 46.88 7.37L46.88 7.37Q46.55 7.37 46.15 7.42Q45.76 7.46 45.35 7.54Q44.93 7.62 44.54 7.70Q44.14 7.78 43.82 7.86Q43.50 7.93 43.29 7.99Q43.08 8.05 43.04 8.06L43.04 8.06L43.04 14.47Q43.04 15.20 43.08 15.75Q43.11 16.30 43.17 16.71Q43.22 17.12 43.28 17.40Q43.34 17.67 43.37 17.84L43.37 17.84Q43.21 17.93 43.00 17.99Q42.80 18.06 42.57 18.11Q42.34 18.16 42.11 18.19Q41.88 18.21 41.70 18.21L41.70 18.21Q41.39 18.21 41.14 18.16Q40.90 18.11 40.71 17.98Q40.52 17.85 40.42 17.63Q40.32 17.41 40.32 17.09L40.32 17.09ZM55.28 9.77L55.28 9.77Q55.28 7.76 55.83 6.13Q56.39 4.51 57.48 3.38Q58.57 2.24 60.19 1.62Q61.82 1.01 63.96 1.01L63.96 1.01Q64.39 1.01 64.95 1.04Q65.51 1.08 66.09 1.15Q66.67 1.22 67.22 1.34Q67.77 1.45 68.20 1.62Q68.63 1.79 68.89 2.02Q69.15 2.25 69.15 2.54L69.15 2.54Q69.15 2.75 69.01 3L69.01 3L68.03 4.65Q67.64 4.44 67.11 4.08Q66.59 3.73 65.95 3.39Q65.31 3.06 64.58 2.81Q63.84 2.57 63.06 2.57L63.06 2.57Q62.13 2.57 61.42 2.87Q60.71 3.16 60.19 3.68Q59.66 4.20 59.30 4.88Q58.95 5.57 58.73 6.34Q58.51 7.11 58.42 7.93Q58.32 8.74 58.32 9.50L58.32 9.50Q58.32 10.44 58.49 11.34Q58.66 12.23 59.01 13.03Q59.36 13.83 59.87 14.49Q60.39 15.15 61.08 15.63Q61.77 16.11 62.64 16.38Q63.50 16.65 64.55 16.65L64.55 16.65Q65.43 16.65 66.28 16.50Q67.14 16.35 67.84 16.16L67.84 16.16Q68.65 15.95 69.39 15.67L69.39 15.67L69.87 16.58Q69.21 17.10 68.48 17.46Q67.75 17.81 66.96 18.04Q66.16 18.26 65.34 18.36Q64.51 18.46 63.68 18.46L63.68 18.46Q61.76 18.46 60.21 17.85Q58.65 17.24 57.56 16.11Q56.46 14.98 55.87 13.37Q55.28 11.77 55.28 9.77ZM79.73 17.09L79.73 16.97Q79.73 16.97 79.58 17.07Q79.42 17.17 79.14 17.32Q78.87 17.47 78.50 17.65Q78.13 17.84 77.69 17.99Q77.25 18.15 76.78 18.26Q76.30 18.36 75.82 18.36L75.82 18.36Q75.06 18.36 74.37 18.16Q73.68 17.95 73.15 17.52Q72.63 17.09 72.32 16.43Q72.01 15.77 72.01 14.86L72.01 14.86Q72.01 13.85 72.46 13.15Q72.91 12.45 73.72 12.01Q74.52 11.57 75.63 11.37Q76.75 11.18 78.08 11.18L78.08 11.18L79.73 11.18L79.73 10.30Q79.73 9.62 79.68 8.99Q79.63 8.37 79.44 7.90Q79.24 7.43 78.87 7.15Q78.50 6.87 77.88 6.87L77.88 6.87Q77.29 6.87 76.69 7.08Q76.09 7.30 75.52 7.63Q74.94 7.96 74.41 8.35Q73.89 8.74 73.45 9.09L73.45 9.09L72.49 7.80Q72.32 7.59 72.32 7.37L72.32 7.37Q72.32 6.98 72.80 6.67Q73.29 6.35 74.02 6.12Q74.75 5.89 75.60 5.77Q76.44 5.64 77.17 5.64L77.17 5.64Q78.25 5.64 79.21 5.89Q80.17 6.15 80.89 6.71Q81.61 7.27 82.03 8.15Q82.45 9.04 82.45 10.30L82.45 10.30L82.45 16.83L84.49 16.83L84.49 17.71Q84.29 17.81 83.95 17.91Q83.60 18 83.18 18.07Q82.76 18.14 82.29 18.18Q81.83 18.21 81.41 18.21L81.41 18.21Q81.13 18.21 80.84 18.18Q80.54 18.14 80.30 18.02Q80.06 17.89 79.90 17.68Q79.75 17.46 79.73 17.09L79.73 17.09ZM76.64 16.63L76.64 16.63Q77.05 16.63 77.58 16.52Q78.12 16.41 78.60 16.28L78.60 16.28Q79.16 16.13 79.73 15.91L79.73 15.91L79.73 12.62L77.77 12.62Q77.32 12.62 76.79 12.70Q76.25 12.79 75.79 13.01Q75.33 13.24 75.01 13.65Q74.70 14.06 74.70 14.73L74.70 14.73Q74.70 15.15 74.82 15.50Q74.95 15.84 75.20 16.10Q75.45 16.35 75.81 16.49Q76.17 16.63 76.64 16.63ZM90.54 6L94.62 6L94.62 6.50Q94.62 7.03 94.39 7.24Q94.16 7.44 93.66 7.44L93.66 7.44L90.54 7.44L90.54 14.31Q90.54 15.62 91.02 16.29Q91.50 16.97 92.48 16.97L92.48 16.97Q92.92 16.97 93.38 16.86Q93.83 16.76 94.20 16.64Q94.56 16.52 94.79 16.44Q95.02 16.35 95.00 16.37L95.00 16.37L95.38 17.18Q94.97 17.44 94.56 17.65Q94.15 17.87 93.69 18.03Q93.23 18.19 92.71 18.28Q92.18 18.36 91.52 18.36L91.52 18.36Q90.67 18.36 89.98 18.10Q89.30 17.84 88.82 17.34Q88.34 16.85 88.08 16.14Q87.82 15.42 87.82 14.52L87.82 14.52L87.82 7.44L85.39 7.44L85.39 6.91Q85.39 6.39 85.62 6.19Q85.85 6 86.36 6L86.36 6L87.82 6L87.82 3.21Q87.82 2.89 87.92 2.68Q88.02 2.46 88.21 2.34Q88.39 2.21 88.64 2.16Q88.89 2.11 89.19 2.11L89.19 2.11Q89.38 2.11 89.61 2.13Q89.84 2.16 90.06 2.20Q90.29 2.24 90.50 2.31Q90.70 2.38 90.87 2.47L90.87 2.47Q90.83 2.64 90.77 2.91Q90.71 3.19 90.66 3.61Q90.61 4.03 90.57 4.62Q90.54 5.21 90.54 6L90.54 6ZM107.02 6.94L106.18 8.50Q105.80 8.27 105.33 8.02Q104.86 7.76 104.35 7.54Q103.84 7.32 103.31 7.18Q102.79 7.03 102.27 7.03L102.27 7.03Q101.47 7.03 100.92 7.42Q100.36 7.82 100.00 8.44Q99.64 9.07 99.48 9.83Q99.32 10.59 99.32 11.33L99.32 11.33Q99.32 12.48 99.62 13.49Q99.93 14.50 100.56 15.25Q101.19 16.00 102.15 16.42Q103.11 16.85 104.43 16.85L104.43 16.85Q105.15 16.85 105.92 16.72Q106.69 16.59 107.50 16.35L107.50 16.35L107.88 17.13Q107.40 17.46 106.84 17.70Q106.28 17.93 105.68 18.08Q105.08 18.22 104.47 18.29Q103.86 18.36 103.28 18.36L103.28 18.36Q102 18.36 100.80 17.96Q99.60 17.55 98.67 16.78Q97.73 16.00 97.17 14.85Q96.61 13.70 96.61 12.21L96.61 12.21Q96.61 10.68 97.15 9.46Q97.70 8.24 98.65 7.39Q99.61 6.54 100.92 6.09Q102.22 5.64 103.76 5.64L103.76 5.64Q103.88 5.64 104.17 5.65Q104.46 5.67 104.83 5.71Q105.20 5.75 105.60 5.83Q106.00 5.91 106.32 6.02Q106.65 6.14 106.86 6.30Q107.07 6.47 107.07 6.69L107.07 6.69Q107.07 6.75 107.07 6.81Q107.06 6.88 107.02 6.94L107.02 6.94ZM109.00 0.48L109.00 0.48Q109.24 0.38 109.69 0.28Q110.13 0.19 110.66 0.13Q111.19 0.07 111.74 0.04Q112.30 0 112.76 0L112.76 0Q113.00 0 113.19 0.01Q113.38 0.02 113.51 0.08Q113.64 0.14 113.70 0.26Q113.77 0.39 113.77 0.62L113.77 0.62L113.77 6.98Q113.84 6.96 114.08 6.86Q114.32 6.75 114.67 6.60Q115.02 6.45 115.48 6.28Q115.93 6.11 116.45 5.95Q116.96 5.80 117.51 5.71Q118.05 5.61 118.59 5.61L118.59 5.61Q119.65 5.61 120.30 5.89Q120.96 6.16 121.33 6.66Q121.70 7.16 121.83 7.85Q121.96 8.53 121.96 9.34L121.96 9.34L121.96 16.83L124.00 16.83L124.00 17.71Q123.80 17.81 123.45 17.91Q123.11 18 122.68 18.07Q122.26 18.14 121.80 18.18Q121.35 18.21 120.93 18.21L120.93 18.21Q120.56 18.21 120.26 18.17Q119.95 18.13 119.72 18.01Q119.50 17.88 119.37 17.67Q119.24 17.45 119.24 17.09L119.24 17.09L119.24 9.57Q119.24 8.98 119.17 8.55Q119.11 8.13 118.93 7.86Q118.75 7.59 118.43 7.47Q118.11 7.35 117.61 7.35L117.61 7.35Q117.12 7.35 116.48 7.45Q115.85 7.55 115.28 7.68Q114.70 7.80 114.28 7.92Q113.85 8.03 113.77 8.04L113.77 8.04L113.77 14.47Q113.77 15.20 113.81 15.75Q113.85 16.30 113.90 16.71Q113.95 17.12 114.01 17.40Q114.07 17.67 114.11 17.84L114.11 17.84Q113.94 17.93 113.73 17.99Q113.52 18.06 113.29 18.11Q113.06 18.16 112.84 18.19Q112.62 18.21 112.43 18.21L112.43 18.21Q112.13 18.21 111.88 18.16Q111.63 18.11 111.45 17.98Q111.26 17.85 111.16 17.63Q111.06 17.41 111.06 17.09L111.06 17.09L111.06 1.37L109.00 1.37L109.00 0.48ZM128.81 11.16L134.88 11.16Q134.95 10.92 134.98 10.69Q135 10.45 135 10.20L135 10.20Q135 9.62 134.81 9.04Q134.61 8.46 134.24 7.99Q133.88 7.52 133.33 7.23Q132.79 6.94 132.08 6.94L132.08 6.94Q131.18 6.94 130.58 7.28Q129.97 7.63 129.59 8.21Q129.21 8.79 129.04 9.56Q128.86 10.32 128.81 11.16L128.81 11.16ZM126.08 12L126.08 12Q126.08 10.61 126.53 9.44Q126.98 8.27 127.83 7.43Q128.68 6.59 129.91 6.11Q131.14 5.64 132.70 5.64L132.70 5.64Q133.88 5.64 134.80 6.01Q135.73 6.39 136.37 7.02Q137.02 7.65 137.36 8.48Q137.70 9.32 137.70 10.22L137.70 10.22Q137.70 10.64 137.63 11.06Q137.55 11.48 137.36 11.82Q137.16 12.16 136.79 12.38Q136.43 12.60 135.84 12.60L135.84 12.60L128.84 12.60Q128.95 13.65 129.39 14.46Q129.82 15.27 130.50 15.83Q131.18 16.38 132.07 16.66Q132.96 16.95 133.99 16.95L133.99 16.95Q134.70 16.95 135.45 16.82Q136.20 16.70 136.99 16.44L136.99 16.44L137.38 17.23Q136.90 17.55 136.35 17.79Q135.80 18.02 135.21 18.17Q134.63 18.32 134.02 18.39Q133.41 18.46 132.82 18.46L132.82 18.46Q131.53 18.46 130.32 18.05Q129.11 17.65 128.16 16.84Q127.22 16.03 126.65 14.82Q126.08 13.62 126.08 12ZM139.80 6.32L139.80 6.32Q140.05 6.21 140.50 6.12Q140.94 6.02 141.47 5.96Q142.01 5.91 142.56 5.87Q143.12 5.84 143.58 5.84L143.58 5.84Q143.82 5.84 144.01 5.85Q144.20 5.86 144.33 5.92Q144.46 5.98 144.52 6.10Q144.59 6.22 144.59 6.46L144.59 6.46L144.59 9.27L146.07 7.15Q146.64 6.38 147.32 6.01Q148.01 5.64 148.88 5.64L148.88 5.64Q149.03 5.64 149.27 5.65Q149.51 5.67 149.74 5.74Q149.96 5.81 150.13 5.94Q150.29 6.07 150.29 6.29L150.29 6.29Q150.29 6.35 150.29 6.39Q150.29 6.42 150.27 6.48L150.27 6.48L149.77 8.13Q149.32 7.99 148.96 7.93Q148.61 7.88 148.30 7.88L148.30 7.88Q147.67 7.88 147.09 8.23Q146.52 8.59 146.04 9.08Q145.56 9.56 145.19 10.06Q144.82 10.56 144.59 10.83L144.59 10.83L144.59 14.47Q144.59 15.20 144.62 15.75Q144.66 16.30 144.71 16.71Q144.76 17.12 144.82 17.40Q144.88 17.67 144.91 17.84L144.91 17.84Q144.75 17.93 144.54 17.99Q144.34 18.06 144.11 18.11Q143.88 18.16 143.65 18.19Q143.43 18.21 143.24 18.21L143.24 18.21Q142.93 18.21 142.69 18.16Q142.44 18.11 142.25 17.98Q142.07 17.85 141.97 17.63Q141.87 17.41 141.87 17.09L141.87 17.09L141.87 7.20L139.80 7.20L139.80 6.32Z" transform="translate(0, 42.8)"></path></svg>