
        <svg xmlns="http://www.w3.org/2000/svg" xmlns:xlink="http://www.w3.org/1999/xlink" version="1.1" width="3300" 
        height="2234.6086256147296" viewBox="0 0 3300 2234.6086256147296">
			
			<g transform="scale(15) translate(10, 10)">
				<defs id="SvgjsDefs8927"></defs><g id="SvgjsG8928" transform="matrix(0.9126488223462209,0,0,0.9126488223462209,56.37307398055768,-6.993630634229727)" fill="#f95b3d"><path xmlns="http://www.w3.org/2000/svg" d="M31.051,11.663c5.708,0,11.183,2.096,15.417,5.903l1.337,1.202l1.337-1.202c4.234-3.807,9.709-5.903,15.417-5.903  c6.164,0,11.96,2.401,16.319,6.76c4.385,4.384,6.64,10.117,6.749,15.892c0,1.105,0.896,2.002,2.002,2.002s2.002-0.896,2.002-2.002  c-0.108-6.801-2.761-13.558-7.925-18.72c-5.114-5.115-11.914-7.932-19.147-7.932c-6.11,0-11.995,2.049-16.754,5.802  c-4.759-3.753-10.644-5.802-16.754-5.802c-7.233,0-14.033,2.817-19.147,7.932c-7.734,7.733-9.842,19.041-6.187,28.72  c0.518,1.371,1.149,2.709,1.898,4h4.765H24.5c1.444,0,2.791-1.005,3.201-2.39l3.653-12.313l8.82,32.267  c0.36,1.316,1.327,1.833,2.111,1.876c0.038,0.002,0.076,0.003,0.114,0.003c0.767,0,1.713-0.425,2.195-1.634l9.812-24.667  l6.592,14.76c0.417,0.931,1.22,1.519,2.149,1.573c0.927,0.045,1.794-0.438,2.314-1.315l4.844-8.161h12.907  c-0.444,0.608-0.909,1.206-1.42,1.779L47.805,84.138L21.091,57.382l-0.037-0.037c-0.364-0.355-0.861-0.576-1.41-0.576  c-1.117,0-2.024,0.906-2.024,2.023c0,0.405,0.122,0.781,0.327,1.098l29.858,29.909l36.858-36.917l0.074-0.078  c1.259-1.405,2.328-2.915,3.241-4.488c0.749-1.292,1.39-2.627,1.907-4h-4.325H70.167c-1.26,0-2.588,0.756-3.229,1.839l-3.453,5.818  l-6.95-15.561c-0.438-0.978-1.263-1.556-2.216-1.556c-0.016,0-0.032,0-0.05,0c-0.973,0.021-1.794,0.637-2.196,1.648L42.72,60.02  l-9.094-33.268c-0.375-1.367-1.371-1.862-2.178-1.871c-0.007,0-0.014,0-0.021,0c-0.804,0-1.796,0.479-2.194,1.825l-5.226,17.61  H10.06c-3.896-8.541-2.303-18.919,4.672-25.892C19.091,14.064,24.887,11.663,31.051,11.663z"></path></g><g id="SvgjsG8929"
																																																																																																																																																																																																																																																																																																																																																																																				   transform="matrix(2.3724793696364017,0,0,2.3724793696364017,-1.8979833825804893,81.14472351317076)" fill="#4f7cac"><path d="M4.04 6 c2.2 0 3.28 1.22 3.28 3.46 l0 1.82 c0 2.24 -1.08 3.46 -3.28 3.46 l-1.04 0 l0 5.26 l-2.2 0 l0 -14 l3.24 0 z M4.04 8 l-1.04 0 l0 4.74 l1.04 0 c0.7 0 1.08 -0.32 1.08 -1.32 l0 -2.1 c0 -1 -0.38 -1.32 -1.08 -1.32 z M12.96 6 l2.24 14 l-2.22 0 l-0.38 -2.54 l-2.7 0 l-0.38 2.54 l-2.02 0 l2.24 -14 l3.22 0 z M11.22 8.48 l-1.04 7.08 l2.12 0 l-1.04 -7.08 l-0.04 0 z M16.220000000000002 20 l0 -14 l2.2 0 l0 14 l-2.2 0 z M24.720000000000002 20 l-2.7 -10.14 l-0.04 0 l0 10.14 l-1.98 0 l0 -14 l2.76 0 l2.22 8.38 l0.04 0 l0 -8.38 l1.96 0 l0 14 l-2.26 0 z M35.96000000000001 14.780000000000001 l2.08 0 l0 1.86 c0 2.24 -1.12 3.52 -3.28 3.52 s-3.28 -1.28 -3.28 -3.52 l0 -7.28 c0 -2.24 1.12 -3.52 3.28 -3.52 s3.28 1.28 3.28 3.52 l0 1.36 l-2.08 0 l0 -1.5 c0 -1 -0.44 -1.38 -1.14 -1.38 s-1.14 0.38 -1.14 1.38 l0 7.56 c0 1 0.44 1.36 1.14 1.36 s1.14 -0.36 1.14 -1.36 l0 -2 z M44.260000000000005 6 l2.24 14 l-2.22 0 l-0.38 -2.54 l-2.7 0 l-0.38 2.54 l-2.02 0 l2.24 -14 l3.22 0 z M42.52 8.48 l-1.04 7.08 l2.12 0 l-1.04 -7.08 l-0.04 0 z M46.88 8 l0 -2 l6.8 0 l0 2 l-2.3 0 l0 12 l-2.2 0 l0 -12 l-2.3 0 z M58.940000000000005 14.780000000000001 l2.08 0 l0 1.86 c0 2.24 -1.12 3.52 -3.28 3.52 s-3.28 -1.28 -3.28 -3.52 l0 -7.28 c0 -2.24 1.12 -3.52 3.28 -3.52 s3.28 1.28 3.28 3.52 l0 1.36 l-2.08 0 l0 -1.5 c0 -1 -0.44 -1.38 -1.14 -1.38 s-1.14 0.38 -1.14 1.38 l0 7.56 c0 1 0.44 1.36 1.14 1.36 s1.14 -0.36 1.14 -1.36 l0 -2 z M64.56 14 l0 6 l-2.2 0 l0 -14 l2.2 0 l0 6 l2.5 0 l0 -6 l2.24 0 l0 14 l-2.24 0 l0 -6 l-2.5 0 z M73.10000000000001 8 l0 3.9 l3.02 0 l0 2 l-3.02 0 l0 4.1 l3.8 0 l0 2 l-6 0 l0 -14 l6 0 l0 2 l-3.8 0 z M85.10000000000001 20 l-2.24 0 c-0.12 -0.36 -0.2 -0.58 -0.2 -1.72 l0 -2.2 c0 -1.3 -0.44 -1.78 -1.44 -1.78 l-0.76 0 l0 5.7 l-2.2 0 l0 -14 l3.32 0 c2.28 0 3.26 1.06 3.26 3.22 l0 1.1 c0 1.44 -0.46 2.36 -1.44 2.82 l0 0.04 c1.1 0.46 1.46 1.5 1.46 2.96 l0 2.16 c0 0.68 0.02 1.18 0.24 1.7 z M81.52000000000001 8 l-1.06 0 l0 4.3 l0.86 0 c0.82 0 1.32 -0.36 1.32 -1.48 l0 -1.38 c0 -1 -0.34 -1.44 -1.12 -1.44 z"></path></g>
			</g>
		</svg>
	